<svg width="299" height="52" viewBox="0 0 299 52" fill="none" xmlns="http://www.w3.org/2000/svg">
    <path d="M16.7339 50.5077H0V24.1355H38.438C43.5694 24.1355 47.9064 19.931 47.8181 14.7926C47.7337 9.80024 43.65 5.76484 38.6452 5.76484H5.75706V12.1677H39.5241C41.1131 12.1677 42.4027 13.459 42.4027 15.0501C42.4027 16.6412 41.1131 17.9325 39.5241 17.9325H0V0H38.365C46.517 0 53.3795 6.42972 53.5714 14.5927C53.7633 22.7558 46.9968 29.9042 38.6452 29.9042H5.75706V44.7467H10.9768V33.4976H16.7339V50.5116V50.5077Z" fill="url(#paint0_linear_3_28)"/>
    <path d="M116.442 50.5077H96.0585L87.7299 39.616H76.3118V50.5077H59.5779V24.1355H98.0159C103.147 24.1355 107.484 19.931 107.396 14.7926C107.312 9.80024 103.228 5.76484 98.2231 5.76484H65.335V12.1677H99.0099C100.599 12.1677 101.888 13.459 101.888 15.0501C101.888 16.6412 100.599 17.9325 99.0099 17.9325H59.5779V0H97.943C106.095 0 112.957 6.42972 113.149 14.5927C113.349 23.0017 106.575 29.9042 98.2231 29.9042H65.335V44.7467H70.5547V33.855H90.5739L98.9025 44.7467H104.867L96.661 33.8934H103.88L116.442 50.5116V50.5077Z" fill="url(#paint1_linear_3_28)"/>
    <path d="M184.03 50.5077H165.93L156.496 33.8896H163.117L169.281 44.7429H174.224L159.762 18.8011L142.05 50.5077H122.529L150.547 0.134513H157.137L132.324 44.7429H138.676L159.766 6.97931L184.03 50.5077Z" fill="url(#paint2_linear_3_28)"/>
    <path d="M211.691 51.0996C196.757 51.0996 184.61 38.9358 184.61 23.9818V0H201.735V23.2938C201.735 28.8473 206.245 33.3631 211.791 33.3631C217.337 33.3631 221.846 28.8473 221.846 23.2938V1.11454H227.603V23.29C227.603 32.0218 220.511 39.1241 211.791 39.1241C203.071 39.1241 195.978 32.0218 195.978 23.29V5.76484H190.367V23.9779C190.367 35.7536 199.935 45.3309 211.691 45.3309C223.447 45.3309 233.015 35.7497 233.015 23.9779V1.11454H238.772V23.9779C238.772 38.9319 226.625 51.0957 211.691 51.0957V51.0996Z" fill="url(#paint3_linear_3_28)"/>
    <path d="M280.891 50.5077H263.769V17.9325H246.717V1.02999H298.826V17.9325H286.832V12.1677H293.069V6.79483H252.474V12.1677H269.526V44.7429H275.134V13.1861H280.891V50.5077Z" fill="url(#paint4_linear_3_28)"/>
    <defs>
        <linearGradient id="paint0_linear_3_28" x1="0" y1="25.7689" x2="298.826" y2="25.7689" gradientUnits="userSpaceOnUse">
            <stop stop-color="#3B4EF0"/>
            <stop offset="1" stop-color="#55178C"/>
        </linearGradient>
        <linearGradient id="paint1_linear_3_28" x1="0" y1="25.7689" x2="298.826" y2="25.7689" gradientUnits="userSpaceOnUse">
            <stop stop-color="#3B4EF0"/>
            <stop offset="1" stop-color="#55178C"/>
        </linearGradient>
        <linearGradient id="paint2_linear_3_28" x1="0" y1="25.7689" x2="298.826" y2="25.7689" gradientUnits="userSpaceOnUse">
            <stop stop-color="#3B4EF0"/>
            <stop offset="1" stop-color="#55178C"/>
        </linearGradient>
        <linearGradient id="paint3_linear_3_28" x1="0" y1="25.7689" x2="298.826" y2="25.7689" gradientUnits="userSpaceOnUse">
            <stop stop-color="#3B4EF0"/>
            <stop offset="1" stop-color="#55178C"/>
        </linearGradient>
        <linearGradient id="paint4_linear_3_28" x1="0" y1="25.7689" x2="298.826" y2="25.7689" gradientUnits="userSpaceOnUse">
            <stop stop-color="#3B4EF0"/>
            <stop offset="1" stop-color="#55178C"/>
        </linearGradient>
    </defs>
</svg>
