<svg width="433" height="91" viewBox="0 0 433 91" fill="none" xmlns="http://www.w3.org/2000/svg">
<path d="M150.908 55.65H134.174V29.2777H172.612C177.743 29.2777 182.08 25.0732 181.992 19.9348C181.908 14.9425 177.824 10.9071 172.819 10.9071H139.931V17.3099H173.698C175.287 17.3099 176.577 18.6012 176.577 20.1923C176.577 21.7834 175.287 23.0748 173.698 23.0748H134.174V5.14224H172.539C180.691 5.14224 187.553 11.572 187.745 19.735C187.937 27.898 181.171 35.0464 172.819 35.0464H139.931V49.889H145.151V38.6398H150.908V55.6538V55.65Z" fill="url(#paint0_linear_3_94)"/>
<path d="M250.616 55.65H230.232L221.904 44.7583H210.486V55.65H193.752V29.2777H232.19C237.321 29.2777 241.658 25.0732 241.57 19.9348C241.486 14.9425 237.402 10.9071 232.397 10.9071H199.509V17.3099H233.184C234.773 17.3099 236.062 18.6012 236.062 20.1923C236.062 21.7834 234.773 23.0748 233.184 23.0748H193.752V5.14224H232.117C240.269 5.14224 247.131 11.572 247.323 19.735C247.523 28.144 240.749 35.0464 232.397 35.0464H199.509V49.889H204.729V38.9973H224.748L233.077 49.889H239.041L230.835 39.0357H238.054L250.616 55.6538V55.65Z" fill="url(#paint1_linear_3_94)"/>
<path d="M318.204 55.65H300.104L290.67 39.0319H297.291L303.455 49.8851H308.398L293.936 23.9433L276.224 55.65H256.703L284.721 5.27676H291.311L266.498 49.8851H272.85L293.94 12.1216L318.204 55.65Z" fill="url(#paint2_linear_3_94)"/>
<path d="M345.865 56.2418C330.931 56.2418 318.784 44.078 318.784 29.124V5.14224H335.909V28.4361C335.909 33.9895 340.419 38.5053 345.965 38.5053C351.511 38.5053 356.02 33.9895 356.02 28.4361V6.25678H361.777V28.4322C361.777 37.164 354.685 44.2663 345.965 44.2663C337.245 44.2663 330.152 37.164 330.152 28.4322V10.9071H324.541V29.1202C324.541 40.8958 334.109 50.4731 345.865 50.4731C357.621 50.4731 367.189 40.892 367.189 29.1202V6.25678H372.946V29.1202C372.946 44.0742 360.799 56.238 345.865 56.238V56.2418Z" fill="url(#paint3_linear_3_94)"/>
<path d="M415.065 55.65H397.943V23.0748H380.891V6.17224H433V23.0748H421.006V17.3099H427.243V11.9371H386.648V17.3099H403.7V49.8851H409.308V18.3284H415.065V55.65Z" fill="url(#paint4_linear_3_94)"/>
<path d="M100.745 13.924L61.7387 0L33.8093 2.16758L13.5253 13.4129L7.5571 19.3891L2.40645 27.3254L0 36.1609V43.3708L15.7513 62.3795L36.4499 62.0105L53.3372 78.7247L58.3382 74.551L58.2768 76.7647L76.968 91.0077H87.2924L80.8829 77.6371L78.1233 74.4472L87.4613 69.6316L98.3306 60.3041L107.127 44.6852L100.745 13.9317V13.924ZM35.3944 7.45587L61.0133 5.46892L96.0892 17.9902L97.421 24.416H77.4286L70.8272 31.6221H49.6988L45.8454 25.177L50.689 19.5697H63.6731C64.529 20.9917 66.0795 21.9448 67.8565 21.9448C70.5547 21.9448 72.7424 19.7542 72.7424 17.0524C72.7424 14.3506 70.5547 12.16 67.8565 12.16C66.2331 12.16 64.7976 12.9555 63.911 14.1777H48.2288L42.9362 20.3038L41.0824 17.2061H17.8085L35.3982 7.45587H35.3944ZM94.1011 56.8183L84.433 65.1197L69.5645 72.7908L76.3386 80.6194L78.699 85.5465L63.7345 74.1436L64.0415 62.7676L53.6404 71.4456L38.6184 56.5762L18.2384 56.9413L17.298 55.8037L18.9446 50.7883H19.3437C20.2226 52.0758 21.7003 52.9213 23.3775 52.9213C26.0756 52.9213 28.2633 50.7306 28.2633 48.0288C28.2633 45.3271 26.0756 43.1364 23.3775 43.1364C21.6504 43.1364 20.1344 44.0357 19.267 45.3924H15.0451L13.2374 50.8997L5.38477 41.4223V37.0141H31.6984L39.9502 49.3163H42.4602L48.7853 59.6623H53.5368C54.4119 60.9844 55.9087 61.8568 57.6128 61.8568C60.311 61.8568 62.4986 59.6661 62.4986 56.9644C62.4986 54.2626 60.311 52.0719 57.6128 52.0719C55.9087 52.0719 54.4119 52.9443 53.5368 54.2664H51.802L48.7738 49.3163H67.9448L72.1628 56.1112H94.5002L94.1011 56.8183ZM97.5399 50.7153H75.1565L70.9385 43.9204H42.821L34.5692 31.6183H6.8202L7.38055 29.5544L11.7636 22.8019L11.967 22.5982H38.0235L46.6437 37.0141H73.1953L79.7967 29.8081H98.5417L100.177 37.6829H87.5342C86.6438 36.4915 85.2275 35.719 83.6271 35.719C80.9289 35.719 78.7412 37.9096 78.7412 40.6114C78.7412 43.3132 80.9289 45.5038 83.6271 45.5038C85.4271 45.5038 86.993 44.5277 87.8412 43.0788H101.294L101.443 43.7936L97.5399 50.7191V50.7153Z" fill="url(#paint5_linear_3_94)"/>
<path d="M134.784 90.7771L139.536 77.8639H140.864L145.615 90.7771H144.253L140.2 79.5626L136.147 90.7771H134.784ZM136.957 87.2913L137.344 86.2229H143.036L143.424 87.2913H136.957Z" fill="url(#paint6_linear_3_94)"/>
<path d="M171.902 91C171.031 91 170.24 90.8271 169.534 90.485C168.828 90.1391 168.267 89.6011 167.849 88.8709C167.431 88.1407 167.223 87.2068 167.223 86.0768V77.8677H168.513V86.0961C168.513 86.9685 168.659 87.6872 168.947 88.2444C169.235 88.8055 169.638 89.2129 170.152 89.4704C170.666 89.7279 171.257 89.8586 171.921 89.8586C172.585 89.8586 173.188 89.7279 173.69 89.4704C174.193 89.2129 174.589 88.8017 174.869 88.2444C175.153 87.6833 175.291 86.9685 175.291 86.0961V77.8677H176.581V86.0768C176.581 87.2068 176.373 88.1407 175.955 88.8709C175.537 89.6011 174.976 90.1391 174.27 90.485C173.564 90.8309 172.773 91 171.902 91Z" fill="url(#paint7_linear_3_94)"/>
<path d="M202.576 90.7771V78.9323H198.707V77.8639H207.734V78.9323H203.865V90.7771H202.576Z" fill="url(#paint8_linear_3_94)"/>
<path d="M234.946 91C233.717 91 232.635 90.7194 231.702 90.1622C230.77 89.6011 230.041 88.8209 229.519 87.8178C228.997 86.8147 228.736 85.6502 228.736 84.3205C228.736 82.9907 228.997 81.8454 229.519 80.8423C230.041 79.8393 230.77 79.0552 231.702 78.4903C232.635 77.9253 233.717 77.6409 234.946 77.6409C236.174 77.6409 237.31 77.9253 238.242 78.4903C239.175 79.0552 239.901 79.8393 240.415 80.8423C240.929 81.8454 241.19 83.0022 241.19 84.3205C241.19 85.6387 240.933 86.8147 240.415 87.8178C239.901 88.8209 239.175 89.6011 238.242 90.1622C237.31 90.7233 236.208 91 234.946 91ZM234.965 89.8739C235.936 89.8739 236.788 89.651 237.525 89.209C238.262 88.7671 238.837 88.1291 239.248 87.299C239.659 86.4688 239.866 85.4773 239.866 84.3205C239.866 83.1636 239.659 82.1759 239.248 81.3496C238.837 80.5272 238.262 79.8931 237.525 79.4511C236.788 79.0091 235.936 78.7862 234.965 78.7862C233.994 78.7862 233.142 79.0091 232.405 79.4511C231.668 79.8931 231.092 80.5272 230.682 81.3496C230.271 82.1721 230.064 83.1636 230.064 84.3205C230.064 85.4773 230.271 86.4688 230.682 87.299C231.092 88.1291 231.668 88.7671 232.405 89.209C233.142 89.651 233.994 89.8739 234.965 89.8739Z" fill="url(#paint9_linear_3_94)"/>
<path d="M263.796 90.7771V77.8639H265.27L270.021 87.1798L274.758 77.8639H276.251V90.7771H274.961V80.2236L270.501 88.9669H269.542L265.082 80.2582V90.7733H263.792L263.796 90.7771Z" fill="url(#paint10_linear_3_94)"/>
<path d="M298.557 90.7771L303.309 77.8639H304.637L309.388 90.7771H308.026L303.973 79.5626L299.92 90.7771H298.557ZM300.733 87.2913L301.121 86.2229H306.813L307.201 87.2913H300.733Z" fill="url(#paint11_linear_3_94)"/>
<path d="M333.23 90.7771V78.9323H329.361V77.8639H338.388V78.9323H334.52V90.7771H333.23Z" fill="url(#paint12_linear_3_94)"/>
<path d="M360.661 90.7771V77.8639H361.95V90.7771H360.661Z" fill="url(#paint13_linear_3_94)"/>
<path d="M390.762 91C389.534 91 388.452 90.7194 387.519 90.1622C386.587 89.6011 385.857 88.8209 385.335 87.8178C384.813 86.8147 384.552 85.6502 384.552 84.3205C384.552 82.9907 384.813 81.8454 385.335 80.8423C385.857 79.8393 386.587 79.0552 387.519 78.4903C388.452 77.9253 389.534 77.6409 390.762 77.6409C391.991 77.6409 393.127 77.9253 394.059 78.4903C394.992 79.0552 395.717 79.8393 396.232 80.8423C396.746 81.8454 397.007 83.0022 397.007 84.3205C397.007 85.6387 396.75 86.8147 396.232 87.8178C395.717 88.8209 394.992 89.6011 394.059 90.1622C393.127 90.7233 392.025 91 390.762 91ZM390.782 89.8739C391.753 89.8739 392.605 89.651 393.342 89.209C394.078 88.7671 394.654 88.1291 395.065 87.299C395.475 86.4688 395.683 85.4773 395.683 84.3205C395.683 83.1636 395.475 82.1759 395.065 81.3496C394.654 80.5272 394.078 79.8931 393.342 79.4511C392.605 79.0091 391.753 78.7862 390.782 78.7862C389.811 78.7862 388.958 79.0091 388.222 79.4511C387.485 79.8931 386.909 80.5272 386.498 81.3496C386.088 82.1721 385.88 83.1636 385.88 84.3205C385.88 85.4773 386.088 86.4688 386.498 87.299C386.909 88.1291 387.485 88.7671 388.222 89.209C388.958 89.651 389.811 89.8739 390.782 89.8739Z" fill="url(#paint14_linear_3_94)"/>
<path d="M419.613 90.7771V77.8639H420.902L428.034 88.6172V77.8639H429.323V90.7771H428.034L420.902 80.0045V90.7771H419.613Z" fill="url(#paint15_linear_3_94)"/>
<defs>
<linearGradient id="paint0_linear_3_94" x1="0" y1="45.8941" x2="433" y2="45.8941" gradientUnits="userSpaceOnUse">
<stop stop-color="#9FBFFF"/>
<stop offset="1" stop-color="#D6B0FF"/>
</linearGradient>
<linearGradient id="paint1_linear_3_94" x1="0" y1="45.8941" x2="433" y2="45.8941" gradientUnits="userSpaceOnUse">
<stop stop-color="#9FBFFF"/>
<stop offset="1" stop-color="#D6B0FF"/>
</linearGradient>
<linearGradient id="paint2_linear_3_94" x1="0" y1="45.8941" x2="433" y2="45.8941" gradientUnits="userSpaceOnUse">
<stop stop-color="#9FBFFF"/>
<stop offset="1" stop-color="#D6B0FF"/>
</linearGradient>
<linearGradient id="paint3_linear_3_94" x1="0" y1="45.8941" x2="433" y2="45.8941" gradientUnits="userSpaceOnUse">
<stop stop-color="#9FBFFF"/>
<stop offset="1" stop-color="#D6B0FF"/>
</linearGradient>
<linearGradient id="paint4_linear_3_94" x1="0" y1="45.8941" x2="433" y2="45.8941" gradientUnits="userSpaceOnUse">
<stop stop-color="#9FBFFF"/>
<stop offset="1" stop-color="#D6B0FF"/>
</linearGradient>
<linearGradient id="paint5_linear_3_94" x1="0" y1="45.8941" x2="433" y2="45.8941" gradientUnits="userSpaceOnUse">
<stop stop-color="#9FBFFF"/>
<stop offset="1" stop-color="#D6B0FF"/>
</linearGradient>
<linearGradient id="paint6_linear_3_94" x1="0" y1="45.8941" x2="433" y2="45.8941" gradientUnits="userSpaceOnUse">
<stop stop-color="#9FBFFF"/>
<stop offset="1" stop-color="#D6B0FF"/>
</linearGradient>
<linearGradient id="paint7_linear_3_94" x1="0" y1="45.8941" x2="433" y2="45.8941" gradientUnits="userSpaceOnUse">
<stop stop-color="#9FBFFF"/>
<stop offset="1" stop-color="#D6B0FF"/>
</linearGradient>
<linearGradient id="paint8_linear_3_94" x1="0" y1="45.8941" x2="433" y2="45.8941" gradientUnits="userSpaceOnUse">
<stop stop-color="#9FBFFF"/>
<stop offset="1" stop-color="#D6B0FF"/>
</linearGradient>
<linearGradient id="paint9_linear_3_94" x1="0" y1="45.8941" x2="433" y2="45.8941" gradientUnits="userSpaceOnUse">
<stop stop-color="#9FBFFF"/>
<stop offset="1" stop-color="#D6B0FF"/>
</linearGradient>
<linearGradient id="paint10_linear_3_94" x1="0" y1="45.8941" x2="433" y2="45.8941" gradientUnits="userSpaceOnUse">
<stop stop-color="#9FBFFF"/>
<stop offset="1" stop-color="#D6B0FF"/>
</linearGradient>
<linearGradient id="paint11_linear_3_94" x1="0" y1="45.8941" x2="433" y2="45.8941" gradientUnits="userSpaceOnUse">
<stop stop-color="#9FBFFF"/>
<stop offset="1" stop-color="#D6B0FF"/>
</linearGradient>
<linearGradient id="paint12_linear_3_94" x1="0" y1="45.8941" x2="433" y2="45.8941" gradientUnits="userSpaceOnUse">
<stop stop-color="#9FBFFF"/>
<stop offset="1" stop-color="#D6B0FF"/>
</linearGradient>
<linearGradient id="paint13_linear_3_94" x1="0" y1="45.8941" x2="433" y2="45.8941" gradientUnits="userSpaceOnUse">
<stop stop-color="#9FBFFF"/>
<stop offset="1" stop-color="#D6B0FF"/>
</linearGradient>
<linearGradient id="paint14_linear_3_94" x1="0" y1="45.8941" x2="433" y2="45.8941" gradientUnits="userSpaceOnUse">
<stop stop-color="#9FBFFF"/>
<stop offset="1" stop-color="#D6B0FF"/>
</linearGradient>
<linearGradient id="paint15_linear_3_94" x1="0" y1="45.8941" x2="433" y2="45.8941" gradientUnits="userSpaceOnUse">
<stop stop-color="#9FBFFF"/>
<stop offset="1" stop-color="#D6B0FF"/>
</linearGradient>
</defs>
</svg>
